<svg xmlns="http://www.w3.org/2000/svg" viewBox="787.43 447.89 81.34 134.42" preserveAspectRatio="xMidYMid meet" role="img" aria-label="Alabama (focused state map)"><rect x="787.43" y="447.89" width="81.34" height="134.42" fill="#ead4a5"/><path d="M799.6,566.8l-1.6-15.2l-2.7-18.8l0.2-14.1l0.8-31l-0.2-16.7l0.2-6.4l7.8-0.4l27.8-2.6l8.9-0.7   l-0.1,2.2l0.2,2.1l0.6,3.4l3.4,7.9l2.4,9.9l1.5,6.1l1.6,4.8l1.5,7l2.1,6.3l2.6,3.4l0.5,3.4l1.9,0.8l0.2,2.1l-1.8,4.8l-0.5,3.2   l-0.2,1.9l1.6,4.4l0.3,5.3l-0.8,2.4l0.6,0.8l1.5,0.8l1,2.5h-6.3l-6.8,0.6l-25.5,2.9l-10.4,1.4l-0.1,3.8l1.8,1.8l2.6,1.9l0.6,7.9   l-5.5,2.6l-2.7-0.3l2.7-1.9v-1l-3.1-6l-2.3-0.6l-1.5,4.4l-1.3,2.7l-0.6-0.2H799.6z" fill="#9c2a23" stroke="#1d160e" stroke-width="0.8"/><text x="828.10" y="574.50" text-anchor="middle" font-family="Georgia, serif" font-weight="900" font-size="8.67" fill="#1d160e">AL</text></svg>