<svg xmlns="http://www.w3.org/2000/svg" viewBox="668.68 424.99 106.64 97.22" preserveAspectRatio="xMidYMid meet" role="img" aria-label="Arkansas (focused state map)"><rect x="668.68" y="424.99" width="106.64" height="97.22" fill="#ead4a5"/><path d="M765,445l-3.8,0.9l-6.2-0.5l0.7-3l3.2-2.7l0.5-2.3l-1.8-3l-11,0.5l-20.8,0.9l-23.3,0.7L679,437   l1.6,6.9v8.2l1.4,11l0.2,37.8l2.3,1.9l3-1.4l2.7,1.1l0.4,10.3l22.9-0.1l18.9-0.8l10.1-0.2l1.1-2.1l-0.3-3.5l-1.8-3l1.6-1.5   l-1.6-2.5l0.7-2.5l1.4-5.6l2.5-2.1l-0.7-2.3l3.7-5.4l2.7-1.4l-0.1-1.5l-0.3-1.8l2.9-5.6l2.4-1.3l0.4-3.4l1.8-1.2l0.9-4.2l-1.3-4   l4-2.4l0.6-2l1.2-4.3L765,445z" fill="#9c2a23" stroke="#1d160e" stroke-width="0.8"/><text x="722.00" y="516.56" text-anchor="middle" font-family="Georgia, serif" font-weight="900" font-size="6.88" fill="#1d160e">AR</text></svg>