<svg xmlns="http://www.w3.org/2000/svg" viewBox="294.64 379.42 146.32 171.37" preserveAspectRatio="xMidYMid meet" role="img" aria-label="Arizona (focused state map)"><rect x="294.64" y="379.42" width="146.32" height="171.37" fill="#ead4a5"/><path d="M311.7,487.5l-2.6,2.2l-0.3,1.5l0.5,1l18.9,10.7l12.1,7.6l14.7,8.6l16.8,10l12.3,2.4l25.1,2.7   l2.5-12.5l3.8-27.2l7-52.9l4.3-31l-24.6-3.7l-27.2-4.6l-33.4-6.3l-2.9,18.1l-0.5,0.5l-1.7,2.6l-2.5-0.1l-1.3-2.7l-2.7-0.3l-0.9-1.1   h-0.9l-0.9,0.6l-1.9,1l-0.1,7l-0.2,1.7l-0.6,12.6l-1.5,2.2l-0.6,3.3l2.7,4.9l1.3,5.8l0.8,1l1,0.6l-0.1,2.3l-1.6,1.4l-3.4,1.7   l-1.9,1.9l-1.5,3.7l-0.6,4.9l-2.9,2.7l-2.1,0.7l-0.1,5.8l-0.5,1.7l0.5,0.8l3.7,0.6l-0.6,2.7l-1.5,2.2L311.7,487.5z" fill="#9c2a23" stroke="#1d160e" stroke-width="0.8"/><text x="367.80" y="540.83" text-anchor="middle" font-family="Georgia, serif" font-weight="900" font-size="11.06" fill="#1d160e">AZ</text></svg>