<svg xmlns="http://www.w3.org/2000/svg" viewBox="171.05 219.57 173.10 295.86" preserveAspectRatio="xMidYMid meet" role="img" aria-label="California (focused state map)"><rect x="171.05" y="219.57" width="173.10" height="295.86" fill="#ead4a5"/><path d="M310.7,486.8l3.8-0.5l1.5-2l0.7-1.9l-3.2-0.1l-1.1-1.8l0.8-1.7l0-6.2l2.2-1.3l2.7-2.6l0.4-4.9   l1.6-3.5l1.9-2.1l3.3-1.7l1.3-0.7l0.8-1.5l-0.9-0.9l-1-1.5l-0.9-5.3l-2.9-5.2l0.1-2.8l-2.2-3.2l-15-23.2l-19.4-28.7l-22.4-33   l-12.7-19.5l1.8-7.2l6.8-25.9l8.1-31.4l-12.4-3.3l-13.5-3.4l-12.6-4.1l-7.5-2.1l-11.4-3l-7.1-2.4l-1.6,4.7l-0.2,7.4l-5.2,11.8   l-3.1,2.6l-0.3,1.1l-1.8,0.8l-1.5,4.2l-0.8,3.2l2.7,4.2l1.6,4.2l1.1,3.6l-0.3,6.5l-1.8,3.1l-0.6,5.8l-1,3.7l1.8,3.9l2.7,4.5   l2.3,4.8l1.3,4l-0.3,3.2l-0.3,0.5v2.1l5.7,6.3l-0.5,2.4l-0.6,2.3l-0.6,1.9l0.2,8.2l2.1,3.7l1.9,2.6l2.7,0.5l1,2.7l-1.1,3.6   l-2.1,1.6h-1.1l-0.8,3.9l0.5,2.9l3.2,4.4l1.6,5.3l1.5,4.7l1.3,3.1l3.4,5.8l1.5,2.6l0.5,2.9l1.6,1v2.4l-0.8,1.9l-1.8,7.1l-0.5,1.9   l2.4,2.7l4.2,0.5l4.5,1.8l3.9,2.1h2.9l2.9,3.1l2.6,4.8l1.1,2.3l3.9,2.1l4.8,0.8l1.5,2.1l0.6,3.2l-1.5,0.6l0.3,1l3.2,0.8l2.7,0.2   l2.9,4.7l3.9,4.2l0.8,2.3l2.6,4.2l0.3,3.2v9.4l0.5,1.8l10,1.5l19.7,2.7L310.7,486.8z M222.8,437l1.3,1.5l-0.2,1.3l-3.2-0.1   l-0.6-1.2l-0.6-1.5L222.8,437z M224.7,437l1.2-0.6l3.6,2.1l3.1,1.2l-0.9,0.6l-4.5-0.2l-1.6-1.6L224.7,437z M245.4,456.8l1.8,2.3   l0.8,1l1.5,0.6l0.6-1.5l-1-1.8l-2.7-2l-1.1,0.2V456.8z M244,465.5l1.8,3.2l1.2,1.9l-1.5,0.2l-1.3-1.2c0,0-0.7-1.5-0.7-1.9   s0-2.2,0-2.2L244,465.5z" fill="#9c2a23" stroke="#1d160e" stroke-width="0.8"/><text x="257.60" y="498.25" text-anchor="middle" font-family="Georgia, serif" font-weight="900" font-size="19.09" fill="#1d160e">CA</text></svg>