<svg xmlns="http://www.w3.org/2000/svg" viewBox="793.58 528.58 197.53 166.53" preserveAspectRatio="xMidYMid meet" role="img" aria-label="Florida (focused state map)"><rect x="793.58" y="528.58" width="197.53" height="166.53" fill="#ead4a5"/><path d="M929.4,545.5l2.3,7.3l3.7,9.7l5.3,9.4l3.7,6.3l4.8,5.5l4,3.7l1.6,2.9l-1.1,1.3L953,593l2.9,7.4   l2.9,2.9l2.6,5.3l3.6,5.8l4.5,8.2l1.3,7.6l0.5,12l0.6,1.8l-0.3,3.4l-2.4,1.3l0.3,1.9l-0.6,1.9l0.3,2.4l0.5,1.9l-2.7,3.2l-3.1,1.5   l-3.9,0.2l-1.5,1.6l-2.4,1l-1.3-0.5l-1.1-1l-0.3-2.9l-0.8-3.4l-3.4-5.2l-3.6-2.3l-3.9-0.3l-0.8,1.3l-3.1-4.4l-0.6-3.6l-2.6-4   l-1.8-1.1l-1.6,2.1l-1.8-0.3l-2.1-5l-2.9-3.9l-2.9-5.3l-2.6-3.1l-3.6-3.7l2.1-2.4l3.2-5.5l-0.2-1.6l-4.5-1l-1.6,0.6l0.3,0.6l2.6,1   l-1.5,4.5l-0.8,0.5l-1.8-4l-1.3-4.8l-0.3-2.7l1.5-4.7v-9.5L910,585l-1.3-3.1l-5.2-1.3l-1.9-0.6l-1.6-2.6l-3.4-1.6l-1.1-3.4l-2.7-1   l-2.4-3.7l-4.2-1.5l-2.9-1.5h-2.6l-4,0.8l-0.2,1.9l0.8,1l-0.5,1.1l-3.1-0.2l-3.7,3.6l-3.6,1.9h-3.9l-3.2,1.3l-0.3-2.7l-1.6-1.9   l-2.9-1.1l-1.6-1.5l-8.1-3.9l-7.6-1.8l-4.4,0.6l-6,0.5l-6,2.1l-3.5,0.6l-0.2-8l-2.6-1.9l-1.8-1.8l0.3-3.1l10.2-1.3l25.5-2.9   l6.8-0.6l5.4,0.3l2.6,3.9l1.5,1.5l8.1,0.5l10.8-0.6l21.5-1.3l5.4-0.7l4.6,0l0.2,2.9l3.8,0.8l0.3-4.8l-1.6-4.5l1-0.7l5.1,0.5   L929.4,545.5z M941.9,677.9l2.4-0.6l1.3-0.2l1.5-2.3l2.3-1.6l1.3,0.5l1.7,0.3l0.4,1.1l-3.5,1.2l-4.2,1.5l-2.3,1.2L941.9,677.9z    M955.4,672.9l1.2,1.1l2.7-2.1l5.3-4.2l3.7-3.9l2.5-6.6l1-1.7l0.2-3.4l-0.7,0.5l-1,2.8l-1.5,4.6l-3.2,5.3l-4.4,4.2l-3.4,1.9   L955.4,672.9z" fill="#9c2a23" stroke="#1d160e" stroke-width="0.8"/><text x="892.35" y="685.45" text-anchor="middle" font-family="Georgia, serif" font-weight="900" font-size="12.74" fill="#1d160e">FL</text></svg>