<svg xmlns="http://www.w3.org/2000/svg" viewBox="830.60 444.03 115.69 121.64" preserveAspectRatio="xMidYMid meet" role="img" aria-label="Georgia (focused state map)"><rect x="830.60" y="444.03" width="115.69" height="121.64" fill="#ead4a5"/><path d="M863.6,458l-4.8,0.8l-8.4,1.1l-8.6,0.9v2.2l0.2,2.1l0.6,3.4l3.4,7.9l2.4,9.9l1.5,6.1l1.6,4.8l1.5,7   l2.1,6.3l2.6,3.4l0.5,3.4l1.9,0.8l0.2,2.1l-1.8,4.8l-0.5,3.2l-0.2,1.9l1.6,4.4l0.3,5.3l-0.8,2.4l0.6,0.8l1.5,0.8l0.6,3.4l2.6,3.9   l1.5,1.5l7.9,0.2l10.8-0.6l21.5-1.3l5.4-0.7l4.6,0l0.2,2.9l2.6,0.8l0.3-4.4l-1.6-4.5l1.1-1.6l5.8,0.8l5,0.3l-0.8-6.3l2.3-10   l1.5-4.2l-0.5-2.6l3.3-6.2l-0.5-1.4l-1.9,0.7l-2.6-1.3l-0.6-2.1l-1.3-3.6l-2.3-2.1l-2.6-0.6l-1.6-4.8l-2.9-6.3l-4.2-1.9l-2.1-1.9   l-1.3-2.6l-2.1-1.9l-2.3-1.3l-2.3-2.9l-3.1-2.3l-4.5-1.8l-0.5-1.5l-2.4-2.9l-0.5-1.5l-3.4-4.9l-3.4,0.2l-4.1-3l-1.3-1.3l-0.3-1.8   l0.8-1.9l2.4-1.2l-1.1-1.2l0.1-0.3l-5.8,1l-7,0.8L863.6,458z" fill="#9c2a23" stroke="#1d160e" stroke-width="0.8"/><text x="888.45" y="558.61" text-anchor="middle" font-family="Georgia, serif" font-weight="900" font-size="7.85" fill="#1d160e">GA</text></svg>