<svg xmlns="http://www.w3.org/2000/svg" viewBox="393.48 601.38 140.74 90.15" preserveAspectRatio="xMidYMid meet" role="img" aria-label="Hawaii (focused state map)"><rect x="393.48" y="601.38" width="140.74" height="90.15" fill="#ead4a5"/><path d="M407.1,619.3l1.9-3.6l2.3-0.3l0.3,0.8l-2.1,3.1H407.1z M417.3,615.6l6.1,2.6l2.1-0.3l1.6-3.9   l-0.6-3.4l-4.2-0.5l-4,1.8L417.3,615.6z M448,625.6l3.7,5.5l2.4-0.3l1.1-0.5l1.5,1.3l3.7-0.2l1-1.5l-2.9-1.8l-1.9-3.7l-2.1-3.6   l-5.8,2.9L448,625.6z M468.2,634.5l1.3-1.9l4.7,1l0.6-0.5l6.1,0.6l-0.3,1.3l-2.6,1.5l-4.4-0.3L468.2,634.5z M473.5,639.7l1.9,3.9   l3.1-1.1l0.3-1.6l-1.6-2.1l-3.7-0.3V639.7z M480.5,638.5l2.3-2.9l4.7,2.4l4.4,1.1l4.4,2.7v1.9l-3.6,1.8l-4.8,1l-2.4-1.5   L480.5,638.5z M497.1,654.1l1.6-1.3l3.4,1.6l7.6,3.6l3.4,2.1l1.6,2.4l1.9,4.4l4,2.6l-0.3,1.3l-3.9,3.2l-4.2,1.5l-1.5-0.6l-3.1,1.8   l-2.4,3.2l-2.3,2.9l-1.8-0.2l-3.6-2.6l-0.3-4.5l0.6-2.4l-1.6-5.7l-2.1-1.8l-0.2-2.6l2.3-1l2.1-3.1l0.5-1l-1.6-1.8L497.1,654.1z" fill="#9c2a23" stroke="#1d160e" stroke-width="0.8"/><text x="463.85" y="686.29" text-anchor="middle" font-family="Georgia, serif" font-weight="900" font-size="9.08" fill="#1d160e">HI</text></svg>