<svg xmlns="http://www.w3.org/2000/svg" viewBox="632.40 272.32 129.21 84.57" preserveAspectRatio="xMidYMid meet" role="img" aria-label="Iowa (focused state map)"><rect x="632.40" y="272.32" width="129.21" height="84.57" fill="#ead4a5"/><path d="M740.6,301.6l0.2,1.9l2.3,1.1l1.1,1.3l0.3,1.3l3.9,3.2l0.7,2.2l-0.8,2.9l-1.5,3.5l-0.8,2.7   l-2.2,1.6l-1.7,0.6l-5.5,1.5l-0.7,2.3l-0.8,2.3l0.6,1.4l1.7,1.7l0,3.7l-2.2,1.6l-0.5,1.5v2.5l-1.5,0.5l-1.7,1.4l-0.5,1.5l0.5,1.7   l-1.4,1.2l-2.3-2.7l-1.5-2.6l-8.3,0.8l-10.2,0.6l-25,0.7l-13,0.2l-9.4,0.2l-1.3,0.1l-1.7-4.5l-0.2-6.6l-1.6-4.1l-0.7-5.3l-2.3-3.7   l-0.9-4.8l-2.7-7.5l-1.1-5.4l-1.4-2.2l-1.6-2.7l1.8-4.3l1.4-5.7l-2.7-2.1l-0.5-2.7l0.9-2.5h1.7h11.5l49.6-0.7l19.9-0.7l1.9,2.7   l1.8,2.6l0.5,0.8l-1.8,2.7l0.5,4.2l2.5,3.9l3,1.8l2.4,0.2L740.6,301.6z" fill="#9c2a23" stroke="#1d160e" stroke-width="0.8"/><text x="697.00" y="351.97" text-anchor="middle" font-family="Georgia, serif" font-weight="900" font-size="8.34" fill="#1d160e">IA</text></svg>