<svg xmlns="http://www.w3.org/2000/svg" viewBox="300.85 107.66 130.70 207.08" preserveAspectRatio="xMidYMid meet" role="img" aria-label="Idaho (focused state map)"><rect x="300.85" y="107.66" width="130.70" height="207.08" fill="#ead4a5"/><path d="M336.1,281c-22.6-4.3-14.1-2.8-21.1-4.4l4.4-17.5l4.3-17.7l1.4-4.2l2.5-5.9l-1.3-2.3l-2.5,0.1   l-0.8-1l0.5-1.1l0.3-3.1l4.5-5.5l1.8-0.5l1.1-1.1l0.6-3.2l0.9-0.7l3.9-5.8l3.9-4.3l0.2-3.8l-3.4-2.6l-1.3-4.4l0.4-9.7l3.7-16.5   l4.5-20.8l3.8-13.5l0.8-3.8l13,2.5l-4.2,21.5l2.9,7.7l-1.1,4.6l2,4.6l3.2,1.7l4.5,9.8l2.7,3.8l0.6,1.1l3.4,1.1l0.5,2.5l-6.9,16.8   l0.3,3.3l2.7,2.9l1.9,0.5l4.8-3.6l0.4-0.5l0.2,0.8l0.3,4.1l2.6,12.9l3.5,2.7l0.4,0.8l2.1,2.4l-0.8,2.8l0.7,3.8l1.9,0.9l2.1-1.6   l2.6-0.5l3.4,1.6l2.5-0.6l3.8-0.2l4,1.6l2.7-0.3l0.9-2.3l2.5-1.6l0.7,1.7l0.6,2.2l2.3,2.5l-3.8,24l-5.1,29l-4.2-0.3l-8.2-1.5   l-9.8-1.8l-12.2-2.4l-12.5-2.5l-8.5-1.8l-9.3-1.7L336.1,281z" fill="#9c2a23" stroke="#1d160e" stroke-width="0.8"/><text x="366.20" y="302.72" text-anchor="middle" font-family="Georgia, serif" font-weight="900" font-size="13.36" fill="#1d160e">ID</text></svg>