<svg xmlns="http://www.w3.org/2000/svg" viewBox="721.40 283.33 85.81 153.64" preserveAspectRatio="xMidYMid meet" role="img" aria-label="Illinois (focused state map)"><rect x="721.40" y="283.33" width="85.81" height="153.64" fill="#ead4a5"/><path d="M791.8,401.6V398l0.3-4.9l2.4-3.1l1.8-3.8l2.6-3.9l-0.4-5.3l-2-3.5l-0.1-3.3l0.7-5.3l-0.8-7.2   l-1.1-15.8l-1.3-15l-0.9-11.6l-0.3-0.9l-0.8-2.6l-1.3-3.7l-1.6-1.8l-1.5-2.6l-0.2-5.5l-9.9,1.3l-27.2,1.7l-8.7-0.4l0.2,2.4l2.3,0.7   l0.9,1.1l0.5,1.8l3.9,3.4l0.7,2.3l-0.7,3.4l-1.8,3.7l-0.7,2.5l-2.3,1.8l-1.8,0.7l-5.3,1.4l-0.7,1.8L736,330l0.7,1.4l1.8,1.6   l-0.2,4.1l-1.8,1.6l-0.7,1.6v2.7l-1.8,0.5l-1.6,1.1l-0.2,1.4l0.2,2.1l-1.7,1.3l-1,2.8l0.5,3.7l2.3,7.3l7.3,7.5l5.5,3.7l-0.2,4.3   l0.9,1.4l6.4,0.5l2.7,1.4l-0.7,3.7l-2.3,5.9l-0.7,3.2l2.3,3.9l6.4,5.3l4.6,0.7l2.1,5l2.1,3.2l-0.9,3l1.6,4.1l1.8,2.1l1.9-0.8   l0.7-2.2l2-1.4l3.2-1.1l3.1,1.2l2.9,1.1l0.8-0.2l-0.1-1.2l-1.1-2.8l0.4-2.4l2.3-1.6l2.4-1l1.2-0.4l-0.6-1.3l-0.8-2.2l1.2-1.3   L791.8,401.6z" fill="#9c2a23" stroke="#1d160e" stroke-width="0.8"/><text x="764.30" y="428.05" text-anchor="middle" font-family="Georgia, serif" font-weight="900" font-size="9.91" fill="#1d160e">IL</text></svg>