<svg xmlns="http://www.w3.org/2000/svg" viewBox="786.17 299.43 64.36 112.34" preserveAspectRatio="xMidYMid meet" role="img" aria-label="Indiana (focused state map)"><rect x="786.17" y="299.43" width="64.36" height="112.34" fill="#ead4a5"/><path d="M792.4,400.9l0.1-2.9l0.5-4.5l2.3-2.9l1.8-3.9l2.6-4.2l-0.5-5.8l-1.8-2.7l-0.3-3.2l0.8-5.5l-0.5-7   l-1.3-16l-1.3-15.4l-1-11.7l3.1,0.9l1.5,1l1.1-0.3l2.1-1.9l2.8-1.6l5.1-0.2l22-2.3l5.6-0.5l1.5,16l4.3,36.8l0.6,5.8L843,371   l1.2,1.8l0.1,1.4l-2.5,1.6l-3.5,1.6l-3.2,0.6l-0.6,4.9l-4.6,3.3l-2.8,4l0.3,2.4l-0.6,1.5h-3.3l-1.6-1.6l-2.5,1.3l-2.7,1.5l0.2,3.1   l-1.2,0.3l-0.5-1l-2.2-1.5l-3.3,1.3l-1.6,3l-1.4-0.8l-1.5-1.6l-4.5,0.5l-5.6,1L792.4,400.9z" fill="#9c2a23" stroke="#1d160e" stroke-width="0.8"/><text x="818.35" y="405.25" text-anchor="middle" font-family="Georgia, serif" font-weight="900" font-size="7.25" fill="#1d160e">IN</text></svg>