<svg xmlns="http://www.w3.org/2000/svg" viewBox="752.78 360.08 158.35 79.73" preserveAspectRatio="xMidYMid meet" role="img" aria-label="Kentucky (focused state map)"><rect x="752.78" y="360.08" width="158.35" height="79.73" fill="#ead4a5"/><path d="M895.8,397.8l-2.3,2.7l-4.2,3.6L885,410l-1.8,1.8v2.1l-3.9,2.1l-5.7,3.4l-3.5,0.4l-51.9,4.9   l-15.8,1.8l-4.6,0.5l-3.9,0l-0.2,4.2l-8.2,0.1l-7,0.6l-10.4,0.2l1.9-0.2l2.2-1.8l2.1-1.1l0.2-3.2l0.9-1.8l-1.6-2.5l0.8-1.9l2.3-1.8   l2.1-0.6l2.7,1.3l3.6,1.3l1.1-0.3l0.2-2.3l-1.3-2.4l0.3-2.3l1.9-1.5l2.6-0.6l1.6-0.6l-0.8-1.8l-0.6-1.9l1.1-0.8l1.1-3.3l3-1.7   l5.8-1l3.6-0.5l1.5,1.9l1.8,0.8l1.8-3.2l2.9-1.5l1.9,1.6l0.8,1.1l2.1-0.5l-0.2-3.4l2.9-1.6l1.1-0.8l1.1,1.6h4.7l0.8-2.1l-0.3-2.3   l2.9-3.6l4.7-3.9l0.5-4.5l2.7-0.3l3.9-1.8l2.7-1.9l-0.3-1.9l-1.5-1.5l0.6-2.2l4.1-0.2l2.4-0.8l2.9,1.6l1.6,4.4l5.8,0.3l1.8,1.8   l2.1,0.2l2.4-1.5l3.1,0.5l1.3,1.5l2.7-2.6l1.8-1.3h1.6l0.6,2.7l1.8,1l2.4,2.2l0.2,5.5l0.8,1.6l2.6,1.5l0.6,2.3l2.9,3.7l2.6,2.7   L895.8,397.8z" fill="#9c2a23" stroke="#1d160e" stroke-width="0.8"/><text x="831.95" y="435.19" text-anchor="middle" font-family="Georgia, serif" font-weight="900" font-size="10.22" fill="#1d160e">KY</text></svg>