<svg xmlns="http://www.w3.org/2000/svg" viewBox="922.18 325.03 98.33 50.34" preserveAspectRatio="xMidYMid meet" role="img" aria-label="Maryland (focused state map)"><rect x="922.18" y="325.03" width="98.33" height="50.34" fill="#ead4a5"/><path d="M1011,355.3l-6.1,1.3l-5.8,0.2l-1.8-7.1l-2.1-9.7l-2.3-5.7l-1.3-4.4l-7.5,1.6l-14.9,2.8l-37.5,7.6   l1.1,5l1,5.7l0.3-0.3l2.1-2.4l2.3-2.6l2.4-0.6l1.5-1.5l1.8-2.6l1.3,0.6l2.9-0.3l2.6-2.1l2-1.5l1.8-0.5l1.6,1.1l2.9,1.5l1.9,1.8   l1.2,1.5l4.1,1.7v2.9l5.5,1.3l1.1,0.5l1.4-2l2.9,2l-1.3,2.5l-0.8,4l-1.8,2.6v2.1l0.6,1.8l5.1,1.4l4.3-0.1l3.1,1l2.1,0.3l1-2.1   l-1.5-2.1v-1.8l-2.4-2.1l-2.1-5.5l1.3-5.3l-0.2-2.1l-1.3-1.3c0,0,1.5-1.6,1.5-2.3c0-0.6,0.5-2.1,0.5-2.1l1.9-1.3l1.9-1.6l0.5,1   l-1.5,1.6l-1.3,3.7l0.3,1.1l1.8,0.3l0.5,5.5l-2.1,1l0.3,3.6l0.5-0.2l1.1-1.9l1.6,1.8l-1.6,1.3l-0.3,3.4l2.6,3.4l3.9,0.5l1.6-0.8   l3.2,4.2l1.4,0.5l6.7-2.8l2-4L1011,355.3z M994.3,364.3l1.1,2.5l0.2,1.8l1.1,1.9c0,0,0.9-0.9,0.9-1.2c0-0.3-0.7-3.1-0.7-3.1   l-0.7-2.3L994.3,364.3z" fill="#9c2a23" stroke="#1d160e" stroke-width="0.8"/><text x="971.35" y="372.45" text-anchor="middle" font-family="Georgia, serif" font-weight="900" font-size="6.34" fill="#1d160e">MD</text></svg>