<svg xmlns="http://www.w3.org/2000/svg" viewBox="1030.84 124.88 78.12 124.25" preserveAspectRatio="xMidYMid meet" role="img" aria-label="Maine (focused state map)"><rect x="1030.84" y="124.88" width="78.12" height="124.25" fill="#ead4a5"/><path d="M1097.2,177.3l1.9,2.1l2.3,3.7v1.9l-2.1,4.7l-1.9,0.6l-3.4,3.1l-4.8,5.5c0,0-0.6,0-1.3,0   c-0.6,0-1-2.1-1-2.1l-1.8,0.2l-1,1.5l-2.4,1.5l-1,1.5l1.6,1.5l-0.5,0.6l-0.5,2.7l-1.9-0.2v-1.6l-0.3-1.3l-1.5,0.3l-1.8-3.2   l-2.1,1.3l1.3,1.5l0.3,1.1l-0.8,1.3l0.3,3.1l0.2,1.6l-1.6,2.6l-2.9,0.5l-0.3,2.9l-5.3,3.1l-1.3,0.5l-1.6-1.5l-3.1,3.6l1,3.2   l-1.5,1.3l-0.2,4.4l-1.1,6.3l-2.5-1.2l-0.5-3.1l-3.9-1.1l-0.3-2.7l-7.3-23.4l-4.2-13.6l1.4-0.1l1.5,0.4v-2.6l0.8-5.5l2.6-4.7l1.5-4   l-1.9-2.4v-6l0.8-1l0.8-2.7l-0.2-1.5l-0.2-4.8l1.8-4.8l2.9-8.9l2.1-4.2h1.3l1.3,0.2v1.1l1.3,2.3l2.7,0.6l0.8-0.8v-1l4-2.9l1.8-1.8   l1.5,0.2l6,2.4l1.9,1l9.1,29.9h6l0.8,1.9l0.2,4.8l2.9,2.3h0.8l0.2-0.5l-0.5-1.1L1097.2,177.3z M1076.3,207.5l1.5-1.5l1.4,1.1   l0.6,2.4l-1.7,0.9L1076.3,207.5z M1083,201.6l1.8,1.9c0,0,1.3,0.1,1.3-0.2s0.2-2,0.2-2l0.9-0.8l-0.8-1.8l-2,0.7L1083,201.6z" fill="#9c2a23" stroke="#1d160e" stroke-width="0.8"/><text x="1069.90" y="241.91" text-anchor="middle" font-family="Georgia, serif" font-weight="900" font-size="8.02" fill="#1d160e">ME</text></svg>