<svg xmlns="http://www.w3.org/2000/svg" viewBox="725.80 158.22 162.19 170.25" preserveAspectRatio="xMidYMid meet" role="img" aria-label="Michigan (focused state map)"><rect x="725.80" y="158.22" width="162.19" height="170.25" fill="#ead4a5"/><path d="M755.6,182.1l1.8-2.1l2.2-0.8l5.4-3.9l2.3-0.6l0.5,0.5l-5.1,5.1l-3.3,1.9l-2.1,0.9L755.6,182.1z    M841.8,214.2l0.6,2.5l3.2,0.2l1.3-1.2c0,0-0.1-1.5-0.4-1.6c-0.3-0.2-1.6-1.9-1.6-1.9l-2.2,0.2l-1.6,0.2l-0.3,1.1L841.8,214.2z    M871.9,277.2l-3.2-8.2l-2.3-9.1l-2.4-3.2l-2.6-1.8l-1.6,1.1l-3.9,1.8l-1.9,5l-2.7,3.7l-1.1,0.6l-1.5-0.6c0,0-2.6-1.5-2.4-2.1   c0.2-0.6,0.5-5,0.5-5l3.4-1.3l0.8-3.4l0.6-2.6l2.4-1.6l-0.3-10l-1.6-2.3l-1.3-0.8l-0.8-2.1l0.8-0.8l1.6,0.3l0.2-1.6L850,231   l-1.3-2.6h-2.6l-4.5-1.5l-5.5-3.4h-2.7l-0.6,0.6l-1-0.5l-3.1-2.3l-2.9,1.8l-2.9,2.3l0.3,3.6l1,0.3l2.1,0.5l0.5,0.8l-2.6,0.8   l-2.6,0.3l-1.5,1.8l-0.3,2.1l0.3,1.6l0.3,5.5l-3.6,2.1l-0.6-0.2v-4.2l1.3-2.4l0.6-2.4l-0.8-0.8l-1.9,0.8l-1,4.2l-2.7,1.1l-1.8,1.9   l-0.2,1l0.6,0.8l-0.6,2.6l-2.3,0.5v1.1l0.8,2.4l-1.1,6.1l-1.6,4l0.6,4.7l0.5,1.1l-0.8,2.4l-0.3,0.8l-0.3,2.7l3.6,6l2.9,6.5l1.5,4.8   l-0.8,4.7l-1,6l-2.4,5.2l-0.3,2.7l-3.3,3.1l4.4-0.2l21.4-2.3l7.3-1l0.1,1.7l6.9-1.2l10.3-1.5l3.9-0.5l0.1-0.6l0.2-1.5l2.1-3.7   l2-1.7l-0.2-5.1l1.6-1.6l1.1-0.3l0.2-3.6l1.5-3l1.1,0.6l0.2,0.6l0.8,0.2l1.9-1L871.9,277.2z M741.5,211.2l0.7-0.6l2.7-0.8l3.6-2.3   v-1l0.6-0.6l6-1l2.4-1.9l4.4-2.1l0.2-1.3l1.9-2.9l1.8-0.8l1.3-1.8l2.3-2.3l4.4-2.4l4.7-0.5l1.1,1.1l-0.3,1l-3.7,1l-1.5,3.1   l-2.3,0.8l-0.5,2.4l-2.4,3.2l-0.3,2.6l0.8,0.5l1-1.1l3.6-2.9l1.3,1.3h2.3l3.2,1l1.5,1.1l1.5,3.1l2.7,2.7l3.9-0.2l1.5-1l1.6,1.3   l1.6,0.5l1.3-0.8h1.1l1.6-1l4-3.6l3.4-1.1l6.6-0.3l4.5-1.9l2.6-1.3l1.5,0.2v5.7l0.5,0.3l2.9,0.8l1.9-0.5l6.1-1.6l1.1-1.1l1.5,0.5v7   l3.2,3.1l1.3,0.6l1.3,1l-1.3,0.3l-0.8-0.3l-3.7-0.5l-2.1,0.6l-2.3-0.2l-3.2,1.5h-1.8l-5.8-1.3l-5.2,0.2l-1.9,2.6l-7,0.6l-2.4,0.8   l-1.1,3.1l-1.3,1.1l-0.5-0.2l-1.5-1.6l-4.5,2.4h-0.6l-1.1-1.6l-0.8,0.2l-1.9,4.4l-1,4l-3.2,7l-1.2-1l-1.4-1l-1.9-10.3l-3.5-1.4   l-2.1-2.3l-12.1-2.7l-2.9-1l-8.2-2.2l-7.9-1.1L741.5,211.2z" fill="#9c2a23" stroke="#1d160e" stroke-width="0.8"/><text x="806.90" y="318.59" text-anchor="middle" font-family="Georgia, serif" font-weight="900" font-size="10.98" fill="#1d160e">MI</text></svg>