<svg xmlns="http://www.w3.org/2000/svg" viewBox="623.06 137.62 141.98 157.85" preserveAspectRatio="xMidYMid meet" role="img" aria-label="Minnesota (focused state map)"><rect x="623.06" y="137.62" width="141.98" height="157.85" fill="#ead4a5"/><path d="M645.9,228.5l-0.5-8.5l-1.8-7.3l-1.8-13.5l-0.5-9.8l-1.8-3.4l-1.6-5v-10.3l0.7-3.9l-1.8-5.5l30.1,0   l0.3-8.2l0.6-0.2l2.3,0.5l1.9,0.8l0.8,5.5l1.5,6.1l1.6,1.6h4.8l0.3,1.5l6.3,0.3v2.1h4.8l0.3-1.3l1.1-1.1l2.3-0.6l1.3,1h2.9l3.9,2.6   l5.3,2.4l2.4,0.5l0.5-1l1.5-0.5l0.5,2.9l2.6,1.3l0.5-0.5l1.3,0.2v2.1l2.6,1h3.1l1.6-0.8l3.2-3.2l2.6-0.5l0.8,1.8l0.5,1.3h1l1-0.8   l8.9-0.3l1.8,3.1h0.6l0.7-1.1l4.4-0.4l-0.6,2.3l-3.9,1.8l-9.2,4.1l-4.8,2l-3.1,2.6l-2.4,3.6l-2.3,3.9l-1.8,0.8l-4.5,5l-1.3,0.2   l-3.8,2.9l-2.8,3.2l-0.2,3l0.2,7.8l-1.6,1.6L704,228l-1.8,5.7l2.5,3.6l0.5,2.5l-1.1,3l-0.2,3.7l0.5,7.1l3.4,4.1h3l2.5,2.3l3.2,1.4   l3.7,5l7.1,5l1.8,2.1l0.2,5.5l-20.6,0.7l-60.2,0.5l-0.3-35.7l-0.5-3l-4.1-3.4l-1.1-1.8v-1.6l2.1-1.6l1.4-1.4L645.9,228.5z" fill="#9c2a23" stroke="#1d160e" stroke-width="0.8"/><text x="694.05" y="286.31" text-anchor="middle" font-family="Georgia, serif" font-weight="900" font-size="10.18" fill="#1d160e">MN</text></svg>