<svg xmlns="http://www.w3.org/2000/svg" viewBox="337.55 116.86 219.60 139.87" preserveAspectRatio="xMidYMid meet" role="img" aria-label="Montana (focused state map)"><rect x="337.55" y="116.86" width="219.60" height="139.87" fill="#ead4a5"/><path d="M530.7,222.3l0.6-11.2l2.3-24.8c0.5-5,1.1-8.5,1.4-15.4l0.9-14.6l-30.7-2.8L476,150l-29.3-4   l-32.3-5.3l-18.4-3.4l-32.7-6.9l-4.5,21.3l3.4,7.5l-1.4,4.6l1.8,4.6l3.2,1.4l4.6,10.8l2.7,3.2l0.5,1.1l3.4,1.1l0.5,2.1l-7.1,17.6   v2.5l2.5,3.2h0.9l4.8-3l0.7-1.1l1.6,0.7l-0.2,5.3l2.7,12.6l3,2.5l0.9,0.7l1.8,2.3l-0.5,3.4l0.7,3.4l1.1,0.9l2.3-2.3h2.7l3.2,1.6   l2.5-0.9h4.1l3.7,1.6l2.7-0.5l0.5-3l3-0.7l1.4,1.4l0.5,3.2l1.8,1.4l1.5-11.6l20.7,3l28.2,4l16.6,1.9l31.4,3.5l11,1.5l1.1-15.4   L530.7,222.3z" fill="#9c2a23" stroke="#1d160e" stroke-width="0.8"/><text x="447.35" y="248.61" text-anchor="middle" font-family="Georgia, serif" font-weight="900" font-size="14.17" fill="#1d160e">MT</text></svg>