<svg xmlns="http://www.w3.org/2000/svg" viewBox="504.86 279.40 177.07 87.79" preserveAspectRatio="xMidYMid meet" role="img" aria-label="Nebraska (focused state map)"><rect x="504.86" y="279.40" width="177.07" height="87.79" fill="#ead4a5"/><path d="M658.2,347l1.4,2.7l0.1,2.1l2.4,3.7l2.7,3.2h-5l-43.5-0.9l-40.8-0.9l-21.2-1l1.1-21.3l-33.4-2.7   l4.3-44l15.5,1L562,290l17.8,1.1l23.8,1.1l10.7-0.5l2.1,2.3l4.8,3l1.1,0.9l4.3-1.4l3.9-0.5l2.7-0.2l1.8,1.4l5,1.6l3,1.6l0.5,1.6   l0.9,2.1h1.8l0.8,0l1,5.2l2.7,8l1.2,4.6l2.1,3.8l0.5,4.9l1.4,4.3l0.5,6.5" fill="#9c2a23" stroke="#1d160e" stroke-width="0.8"/><text x="593.40" y="362.10" text-anchor="middle" font-family="Georgia, serif" font-weight="900" font-size="11.42" fill="#1d160e">NE</text></svg>