<svg xmlns="http://www.w3.org/2000/svg" viewBox="1025.66 185.15 34.47 73.90" preserveAspectRatio="xMidYMid meet" role="img" aria-label="New Hampshire (focused state map)"><rect x="1025.66" y="185.15" width="34.47" height="73.90" fill="#ead4a5"/><path d="M1054.8,242.4l0.9-1.1l1.1-3.3l-2.5-0.9l-0.5-3.1l-3.9-1.1l-0.3-2.7l-7.3-23.4l-4.6-14.5l-0.9,0   l-0.6,1.6l-0.6-0.5l-1-1l-1.5,1.9l0,5l0.3,5.7l1.9,2.7v4l-3.7,5.1l-2.6,1.1v1.1l1.1,1.8v8.6l-0.8,9.2l-0.2,4.8l1,1.3l-0.2,4.5   l-0.5,1.8l1.5,0.9l16.4-4.7l2.3-0.6l1.5-2.6L1054.8,242.4z" fill="#9c2a23" stroke="#1d160e" stroke-width="0.8"/><text x="1042.90" y="254.76" text-anchor="middle" font-family="Georgia, serif" font-weight="900" font-size="4.77" fill="#1d160e">NH</text></svg>