<svg xmlns="http://www.w3.org/2000/svg" viewBox="237.99 246.18 136.52 211.05" preserveAspectRatio="xMidYMid meet" role="img" aria-label="Nevada (focused state map)"><rect x="237.99" y="246.18" width="136.52" height="211.05" fill="#ead4a5"/><path d="M314.7,277.6l21,4.5l9.7,1.9l9.3,1.8l6.6,1.6l-0.6,5.9l-3.5,17.3l-4.1,20l-1.9,9.7l-2.2,13.3   l-3.2,16.4l-3.5,15.7l-2,10.2l-2.5,16.8l-0.5,1.1l-1.1,2.5l-1.9-0.1l-1.1-2.7l-2.7-0.5l-1.4-1l-2,0.3l-0.9,0.7l-1.3,1.3l-0.4,7   l-0.5,1.7l-0.4,12.1l-1.3,1.7l-1.9-2.3l-14.5-22.7l-19.4-29L263.6,349l-12.4-18.6l1.6-6.6l7-25.9l7.9-31.3l33.6,8.1l13.7,3" fill="#9c2a23" stroke="#1d160e" stroke-width="0.8"/><text x="306.25" y="444.97" text-anchor="middle" font-family="Georgia, serif" font-weight="900" font-size="13.62" fill="#1d160e">NV</text></svg>