<svg xmlns="http://www.w3.org/2000/svg" viewBox="903.30 195.10 157.11 120.90" preserveAspectRatio="xMidYMid meet" role="img" aria-label="New York (focused state map)"><rect x="903.30" y="195.10" width="157.11" height="120.90" fill="#ead4a5"/><path d="M1002.6,289.4l-1.1-1l-2.6-0.2l-2.3-1.9l-1.6-6.1l-3.5,0.1l-2.4-2.7l-19.4,4.4l-43,8.7l-7.5,1.2   l-0.7-6.5l1.4-1.1l1.3-1.1l1-1.6l1.8-1.1l1.9-1.8l0.5-1.6l2.1-2.7l1.1-1l-0.2-1l-1.3-3.1l-1.8-0.2l-1.9-6.1l2.9-1.8l4.4-1.5l4-1.3   l3.2-0.5l6.3-0.2l1.9,1.3l1.6,0.2l2.1-1.3l2.6-1.1l5.2-0.5l2.1-1.8l1.8-3.2l1.6-1.9h2.1l1.9-1.1l0.2-2.3l-1.5-2.1l-0.3-1.5l1.1-2.1   v-1.5h-1.8l-1.8-0.8l-0.8-1.1l-0.2-2.6l5.8-5.5l0.6-0.8l1.5-2.9l2.9-4.5l2.7-3.7l2.1-2.4l2.4-1.8l3.1-1.2l5.5-1.3l3.2,0.2l4.5-1.5   l7.6-2.1l0.5,5l2.4,6.5l0.8,5.2l-1,3.9l2.6,4.5l0.8,2.1l-0.8,2.9l2.9,1.3l0.6,0.3l3.1,11l-0.5,5.1l-0.5,10.8l0.8,5.5l0.8,3.6   l1.5,7.3v8.1l-1.1,2.3l1.8,2l0.8,1.7l-1.9,1.8l0.3,1.3l1.3-0.3l1.5-1.3l2.3-2.6l1.1-0.6l1.6,0.6l2.3,0.2l7.9-3.9l2.9-2.7l1.3-1.5   l4.2,1.6l-3.4,3.6l-3.9,2.9l-7.1,5.3l-2.6,1l-5.8,1.9l-4,1.1l-1.2-0.5l-0.2-3.7l0.5-2.7l-0.2-2.1l-2.8-1.7l-4.5-1l-3.9-1.1   L1002.6,289.4z" fill="#9c2a23" stroke="#1d160e" stroke-width="0.8"/><text x="981.85" y="308.98" text-anchor="middle" font-family="Georgia, serif" font-weight="900" font-size="10.14" fill="#1d160e">NY</text></svg>