<svg xmlns="http://www.w3.org/2000/svg" viewBox="513.87 412.14 185.26 97.71" preserveAspectRatio="xMidYMid meet" role="img" aria-label="Oklahoma (focused state map)"><rect x="513.87" y="412.14" width="185.26" height="97.71" fill="#ead4a5"/><path d="M549.3,422.6l-10.7-0.5l-6.4-0.5l0.3,0.2l-0.7,10.4l22,1.4l32.1,1.3l-2.3,24.4l-0.5,17.8l0.2,1.6   l4.3,3.7l2.1,1.1l0.7-0.2l0.7-2.1l1.4,1.8h2.1v-1.4l2.7,1.4l-0.5,3.9l4.1,0.2l2.5,1.1l4.1,0.7l2.5,1.8l2.3-2.1l3.4,0.7l2.5,3.4h0.9   v2.3l2.3,0.7l2.3-2.3l1.8,0.7h2.5l0.9,2.5l4.8,1.8l1.4-0.7l1.8-4.1h1.1l1.1,2.1l4.1,0.7l3.7,1.4l3,0.9l1.8-0.9l0.7-2.5h4.3l2.1,0.9   l2.7-2.1h1.1l0.7,1.6h4.1l1.6-2.1l1.8,0.5l2.1,2.5l3.2,1.8l3.2,0.9l1.9,1.1l-0.4-37.2l-1.4-11l-0.2-8.9l-1.4-6.5l-0.8-7.2l-0.1-3.8   l-12.1,0.3l-46.4-0.5l-45-2.1L549.3,422.6z" fill="#9c2a23" stroke="#1d160e" stroke-width="0.8"/><text x="606.50" y="504.18" text-anchor="middle" font-family="Georgia, serif" font-weight="900" font-size="11.95" fill="#1d160e">OK</text></svg>