<svg xmlns="http://www.w3.org/2000/svg" viewBox="183.41 146.44 173.48 144.21" preserveAspectRatio="xMidYMid meet" role="img" aria-label="Oregon (focused state map)"><rect x="183.41" y="146.44" width="173.48" height="144.21" fill="#ead4a5"/><path d="M314.3,276.7l4.3-17.9l4.7-17.9l1.1-4.2l2.4-5.6l-0.6-1.2l-2.5,0l-1.3-1.7l0.5-1.5l0.5-3.2l4.5-5.5   l1.8-1.1l1.1-1.1l1.5-3.6l4-5.7l3.6-3.9l0.2-3.5l-3.3-2.5l-1.2-4.5l-13.2-3.7l-15.1-3.5l-15.4,0.1l-0.5-1.4l-5.5,2.1l-4.5-0.6   l-2.4-1.6l-1.3,0.7L273,184l-1.7-1.4l-5.3-2.1l-0.8,0.1l-4.3-1.5l-1.9,1.8l-6.2-0.3l-5.9-4.1l0.7-0.8l0.2-7.8l-2.3-3.9l-4.1-0.6   l-0.7-2.5l-2.4-0.5l-5.8,2.1l-2.3,6.5l-3.2,10l-3.2,6.5l-5,14.1l-6.5,13.6l-8.1,12.6l-1.9,2.9l-0.8,8.6l-1.3,6l2.7,3.5l6.7,2.3   l11.6,3.3l7.9,2.5l12.4,3.6l13.3,3.6l13.2,3.6" fill="#9c2a23" stroke="#1d160e" stroke-width="0.8"/><text x="270.15" y="282.28" text-anchor="middle" font-family="Georgia, serif" font-weight="900" font-size="11.19" fill="#1d160e">OR</text></svg>