<svg xmlns="http://www.w3.org/2000/svg" viewBox="894.46 271.48 123.38 79.73" preserveAspectRatio="xMidYMid meet" role="img" aria-label="Pennsylvania (focused state map)"><rect x="894.46" y="271.48" width="123.38" height="79.73" fill="#ead4a5"/><path d="M996.2,326.5l1.1-0.6l2.3-0.6l1.5-2.7l1.6-2.3l3.2-3.1v-0.8l-2.4-1.6l-3.6-2.4l-1-2.6l-2.7-0.3   l-0.2-1.1l-0.8-2.7l2.3-1.1l0.2-2.4l-1.3-1.3l0.2-1.6l1.9-3.1v-3.1l2.3-2.4l0.2-1.1l-2.6-0.2l-2.3-1.9l-2.4-5.3l-3-0.9l-2.3-2.1   l-18.6,4l-43,8.7l-8.9,1.5l-0.5-7.1l-5.5,5.6l-1.3,0.5l-4.2,3l2.9,19.1l2.5,9.7l3.6,19.3l3.3-0.6l11.9-1.5l37.9-7.7l14.9-2.8   l8.3-1.6l0.3-0.2l2.1-1.6L996.2,326.5z" fill="#9c2a23" stroke="#1d160e" stroke-width="0.8"/><text x="956.15" y="346.59" text-anchor="middle" font-family="Georgia, serif" font-weight="900" font-size="7.96" fill="#1d160e">PA</text></svg>