<svg xmlns="http://www.w3.org/2000/svg" viewBox="511.77 213.23 150.16 99.94" preserveAspectRatio="xMidYMid meet" role="img" aria-label="South Dakota (focused state map)"><rect x="511.77" y="213.23" width="150.16" height="99.94" fill="#ead4a5"/><path d="M646.8,303.2l-1-1.1l-1.5-3.6l1.8-3.7l1.1-5.6l-2.6-2.1l-0.3-2.7l0.6-3l2.2-0.8l0.3-5.7l-0.1-30.1   l-0.6-3l-4.1-3.6l-1-2v-1.9l1.9-1.3l1.5-1.9l0.2-2.7l-57.4-1.6l-56.2-3.9l-0.8,5.3l-1.6,15.9l-1.3,17.9l-1.6,24.6l16,1l19.6,1.1   l18,1.3l23.8,1.3l10.7-0.8l2.9,2.3l4.3,3l1,0.8l3.5-0.9l4-0.3l2.7-0.1l3.1,1.2l4.5,1.4l3.1,1.8l0.6,1.9l0.9,1.9l0.7-0.5   L646.8,303.2z" fill="#9c2a23" stroke="#1d160e" stroke-width="0.8"/><text x="586.85" y="307.37" text-anchor="middle" font-family="Georgia, serif" font-weight="900" font-size="9.69" fill="#1d160e">SD</text></svg>