<svg xmlns="http://www.w3.org/2000/svg" viewBox="741.40 409.75 180.79 62.50" preserveAspectRatio="xMidYMid meet" role="img" aria-label="Tennessee (focused state map)"><rect x="741.40" y="409.75" width="180.79" height="62.50" fill="#ead4a5"/><path d="M871.1,420.6l-51.9,5l-15.8,1.8l-4.6,0.5l-3.9,0v3.9l-8.4,0.5l-7,0.6l-11.1,0.1l-0.3,5.8l-2.1,6.3   l-1,3l-1.3,4.4l-0.3,2.6l-4,2.3l1.5,3.6l-1,4.4l-1,0.8l7.3-0.2l24.1-1.9l5.3-0.2l8.1-0.5l27.8-2.6l10.2-0.8l8.4-1l8.4-1.1l4.8-0.8   l-0.1-4.5l1.8-1.5l2.7-0.6l0.6-3.7l4.2-2.7l3.9-1.5l4.2-3.6l4.4-2.1l0.9-3.5l4.3-3.9l0.6-0.2c0,0,0,1.1,0.8,1.1s1.9,0.3,1.9,0.3   l2.3-3.6l2.1-0.6l2.3,0.3l1.6-3.6l2.1-2.2l0.6-1l0.2-3.9l-1.5-0.3l-2.4,1.9l-7.9,0.2l-12,1.9L871.1,420.6z" fill="#9c2a23" stroke="#1d160e" stroke-width="0.8"/><text x="831.80" y="468.62" text-anchor="middle" font-family="Georgia, serif" font-weight="900" font-size="11.66" fill="#1d160e">TN</text></svg>