<svg xmlns="http://www.w3.org/2000/svg" viewBox="330.47 273.33 119.16 150.54" preserveAspectRatio="xMidYMid meet" role="img" aria-label="Utah (focused state map)"><rect x="330.47" y="273.33" width="119.16" height="150.54" fill="#ead4a5"/><path d="M427,409.3l-24.6-3.5l-26.6-4.9l-33.8-6l1.6-9.2l3.2-15.2L350,354l2.2-13.6l1.9-8.9l3.8-20.5   l3.5-17.5l1.1-5.6l12.7,2.3l12,2.1l10.3,1.8l8.3,1.4l3.7,0.5l-1.5,10.6l-2.3,13.2l7.8,0.9l16.4,1.8l8.2,0.9l-2.1,22l-3.2,22.6   l-3.8,27.8l-1.7,11.1L427,409.3z" fill="#9c2a23" stroke="#1d160e" stroke-width="0.8"/><text x="390.05" y="415.13" text-anchor="middle" font-family="Georgia, serif" font-weight="900" font-size="9.71" fill="#1d160e">UT</text></svg>