<svg xmlns="http://www.w3.org/2000/svg" viewBox="1002.49 193.11 35.22 67.08" preserveAspectRatio="xMidYMid meet" role="img" aria-label="Vermont (focused state map)"><rect x="1002.49" y="193.11" width="35.22" height="67.08" fill="#ead4a5"/><path d="M1018.3,253.7l-0.8-5.7l-2.4-10l-0.6-0.3l-2.9-1.3l0.8-2.9l-0.8-2.1l-2.7-4.6l1-3.9l-0.8-5.2   l-2.4-6.5l-0.8-4.9l26.2-6.7l0.3,5.8l1.9,2.7v4l-3.7,4l-2.6,1.1v1.1l1.1,1.8v8.6l-0.8,9.2l-0.2,4.8l1,1.3l-0.2,4.5l-0.5,1.8   l0.7,1.6l-7,1.4L1018.3,253.7z" fill="#9c2a23" stroke="#1d160e" stroke-width="0.8"/><text x="1020.10" y="256.30" text-anchor="middle" font-family="Georgia, serif" font-weight="900" font-size="4.33" fill="#1d160e">VT</text></svg>