<svg xmlns="http://www.w3.org/2000/svg" viewBox="218.24 96.21 144.21 105.28" preserveAspectRatio="xMidYMid meet" role="img" aria-label="Washington (focused state map)"><rect x="218.24" y="96.21" width="144.21" height="105.28" fill="#ead4a5"/><path d="M267.6,106.4l4.4,1.5l9.7,2.7l8.6,1.9l20,5.7l23,5.7l15.2,3.4l-1,3.9l-4.1,13.8l-4.5,20.8   l-3.2,16.1l-0.4,9.4l-13.2-3.9l-15.6-3.4l-13.7,0.6l-1.6-1.5l-5.3,1.9l-4-0.3l-2.7-1.8l-1.6,0.5l-4.2-0.2l-1.9-1.4l-4.8-1.7   l-1.4-0.2l-5-1.3l-1.8,1.5l-5.7-0.3l-4.8-3.8l0.2-0.8l0.1-7.9l-2.1-3.9l-4.1-0.7l-0.4-2.4l-2.5-0.6l-2.9-0.5l-1.8,1l-2.3-2.9   l0.3-2.9l2.7-0.3l1.6-4l-2.6-1.1l0.2-3.7l4.4-0.6l-2.7-2.7l-1.5-7.1l0.6-2.9v-7.9l-1.8-3.2l2.3-9.4l2.1,0.5l2.4,2.9l2.7,2.6   l3.2,1.9l4.5,2.1l3.1,0.6l2.9,1.5l3.4,1l2.3-0.2v-2.4l1.3-1.1l2.1-1.3l0.3,1.1l0.3,1.8l-2.3,0.5l-0.3,2.1l1.8,1.5l1.1,2.4l0.6,1.9   l1.5-0.2l0.2-1.3l-1-1.3l-0.5-3.2l0.8-1.8l-0.6-1.5V119l1.8-3.6l-1.1-2.6l-2.4-4.8l0.3-0.8L267.6,106.4z M258.1,112.3l2-0.2   l0.5,1.4l1.5-1.6h2.3l0.8,1.5l-1.5,1.7l0.6,0.8l-0.7,2l-1.4,0.4c0,0-0.9,0.1-0.9-0.2s1.5-2.6,1.5-2.6l-1.7-0.6l-0.3,1.5l-0.7,0.6   l-1.5-2.3L258.1,112.3z" fill="#9c2a23" stroke="#1d160e" stroke-width="0.8"/><text x="290.35" y="195.38" text-anchor="middle" font-family="Georgia, serif" font-weight="900" font-size="9.30" fill="#1d160e">WA</text></svg>