<svg xmlns="http://www.w3.org/2000/svg" viewBox="692.43 192.37 113.34 119.16" preserveAspectRatio="xMidYMid meet" role="img" aria-label="Wisconsin (focused state map)"><rect x="692.43" y="192.37" width="113.34" height="119.16" fill="#ead4a5"/><path d="M786.9,297.2l0.4-3l-1.6-4.5l-0.6-6.1l-1.1-2.4l1-3.1l0.8-2.9l1.5-2.6l-0.6-3.4l-0.6-3.6l0.5-1.8   l1.9-2.4l0.2-2.7l-0.8-1.3l0.6-2.6l0.5-3.2l2.7-5.7l2.9-6.8l0.2-2.3l-0.3-1l-0.8,0.5l-4.2,6.3l-2.7,4l-1.9,1.8l-0.8,2.3l-1.5,0.8   l-1.1,1.9l-1.5-0.3l-0.2-1.8l1.3-2.4l2.1-4.7l1.8-1.6l1.1-2.3l-1.6-0.9l-1.4-1.4l-1.6-10.3l-3.7-1.1l-1.4-2.3l-12.6-2.7l-2.5-1.1   l-8.2-2.3l-8.2-1.1l-4.2-5.4l-0.5,1.3l-1.1-0.2l-0.6-1.1l-2.7-0.8l-1.1,0.2l-1.8,1l-1-0.6l0.6-1.9l1.9-3.1l1.1-1.1l-1.9-1.5   l-2.1,0.8l-2.9,1.9l-7.4,3.2l-2.9,0.6l-2.9-0.5l-1-0.9l-2.1,2.8l-0.2,2.7v8.5l-1.1,1.6l-5.3,3.9l-2.3,5.9l0.5,0.2l2.5,2.1l0.7,3.2   l-1.8,3.2v3.9l0.5,6.6l3,3h3.4l1.8,3.2l3.4,0.5l3.9,5.7l7.1,4.1l2.1,2.7l0.9,7.4l0.7,3.3l2.3,1.6l0.2,1.4l-2.1,3.4l0.2,3.2l2.5,3.9   l2.5,1.1l3,0.5l1.3,1.4l9.2,0l26.1-1.5L786.9,297.2z" fill="#9c2a23" stroke="#1d160e" stroke-width="0.8"/><text x="749.10" y="304.61" text-anchor="middle" font-family="Georgia, serif" font-weight="900" font-size="7.69" fill="#1d160e">WI</text></svg>