<svg xmlns="http://www.w3.org/2000/svg" viewBox="874.55 314.57 96.60 97.46" preserveAspectRatio="xMidYMid meet" role="img" aria-label="West Virginia (focused state map)"><rect x="874.55" y="314.57" width="96.60" height="97.46" fill="#ead4a5"/><path d="M930.6,342l1.1,4.9l1.1,6.9l3.6-2.7l2.3-3.1l2.5-0.6l1.5-1.5l1.8-2.6l1.2,0.6l2.9-0.3l2.6-2.1   l2-1.5l1.8-0.5l1.3,1l2.2,1.1l1.9,1.8l1.4,1.3l-0.1,4.7l-5.7-3.1l-4.5-1.8l-0.2,5.3l-0.5,2.1l-1.6,2.7l-0.6,1.6l-3.1,2.4l-0.5,2.3   l-3.4,0.3l-0.3,3.1l-1.1,5.5h-2.6l-1.3-0.8l-1.6-2.7l-1.8,0.2l-0.3,4.4l-2.1,6.6l-5,10.8l0.8,1.3l-0.2,2.7l-2.1,1.9l-1.5-0.3   l-3.2,2.4l-2.6-1l-1.8,4.7c0,0-3.7,0.8-4.4,1c-0.6,0.2-2.4-1.3-2.4-1.3l-2.4,2.3l-2.6,0.6l-2.9-0.8l-1.3-1.3l-2.2-3l-3.1-2   l-2.6-2.7l-2.9-3.7l-0.6-2.3l-2.6-1.5l-0.8-1.6l-0.2-5.3l2.2-0.1l1.9-0.8l0.2-2.7l1.6-1.5l0.2-5l1-3.9l1.3-0.6l1.3,1.1l0.5,1.8   l1.8-1l0.5-1.6l-1.1-1.8v-2.4l1-1.3l2.3-3.4l1.3-1.5l2.1,0.5l2.3-1.6l3.1-3.4l2.3-3.9l0.3-5.7l0.5-5v-4.7l-1.1-3.1l1-1.5l1.3-1.3   l3.5,19.8l4.6-0.8L930.6,342z" fill="#9c2a23" stroke="#1d160e" stroke-width="0.8"/><text x="922.85" y="406.37" text-anchor="middle" font-family="Georgia, serif" font-weight="900" font-size="6.29" fill="#1d160e">WV</text></svg>